<?xml version="1.0" encoding="utf-8"?>
<!-- Generator: Adobe Illustrator 16.0.0, SVG Export Plug-In . SVG Version: 6.00 Build 0)  -->
<!DOCTYPE svg PUBLIC "-//W3C//DTD SVG 1.1//EN" "http://www.w3.org/Graphics/SVG/1.1/DTD/svg11.dtd">
<svg version="1.1" id="Layer_2" xmlns="http://www.w3.org/2000/svg" xmlns:xlink="http://www.w3.org/1999/xlink" x="0px" y="0px"
	 width="77px" height="27.402px" viewBox="0 0 77 27.402" enable-background="new 0 0 77 27.402" xml:space="preserve">
<rect y="0" width="77" height="27.402"/>
<path fill="#FFFFFF" d="M13.295,10.723c-0.843,3.109-1.585,6.298-3.05,9.167c-0.662,1.125-1.104,1.867-2.547,1.807
	c-0.863-0.08-1.384-1.426-0.421-1.826c0.702-0.361,1.284,0.662,0.922,1.104c-0.221,0.262-0.32,0.322-0.18,0.4
	c0.28,0.041,0.341,0.061,0.702-0.139c0.923-0.623,0.964-1.225,1.224-2.27c0.201-0.902,0.441-1.784,0.662-2.688
	c0-0.06,0.02-0.141,0.041-0.199c-0.461,0.42-0.963,0.602-1.525,0.602C8.5,16.681,8,16.24,7.838,15.617
	c-0.882,0.844-1.425,1.064-2.668,1.084c-0.863,0.021-2.126-0.562-2.106-1.785c0.02-2.468,2.889-2.548,4.714-2.608v-1.706
	c0-1.465-0.481-1.666-2.327-1.344c-0.421,0.06-0.982,0.441-0.762,0.802c0.061,0.101,0.281,0.14,0.481,0.462
	c0.221,0.361,0.06,1.204-0.782,1.184c-0.481-0.02-0.742-0.542-0.742-1.043c0-0.582,0.341-1.024,0.943-1.384
	c1.425-0.843,4.735-0.683,4.735,1.625v4.313c0,1.003,0.341,1.123,0.682,1.003c0.261-0.08,0.582-0.44,0.742-0.702
	c0.321-1.625,0.623-3.209,1.104-4.794c-0.522,0-1.043,0-1.585,0c0.061-0.121,0.08-0.241,0.141-0.361
	c0.481,0.02,1.023,0.02,1.524,0.02c0.12-0.501,0.281-1.023,0.481-1.524c0.642-1.726,1.605-3.19,3.129-4.093
	c0.883-0.462,1.686-0.361,2.187,0.341c0.582,1.264-1.183,1.846-1.564,0.863c-0.141-0.261-0.161-0.602,0.281-1.023
	c0-0.301-0.501-0.141-0.642-0.041c-0.883,0.662-1.444,1.926-1.986,3.671c-0.14,0.602-0.281,1.204-0.441,1.805
	c0.623,0,1.184,0,1.786,0c-0.041,0.101-0.041,0.221-0.1,0.342C14.458,10.723,13.876,10.723,13.295,10.723L13.295,10.723z
	 M7.778,15.117v-2.549c-3.832-0.362-3.491,2.447-2.869,3.23C5.671,16.781,7.356,16.139,7.778,15.117L7.778,15.117z"/>
<path fill="#FFFFFF" d="M13.696,4.022v0.461c0,0.041,0,0.081-0.06,0.081c-0.081,0-0.081-0.04-0.081-0.081V4.022
	c0-0.041,0-0.081,0.081-0.081C13.696,3.942,13.696,3.982,13.696,4.022L13.696,4.022z M13.074,4.042l0.04,0.461
	c0,0.041,0.02,0.081-0.06,0.081s-0.08-0.04-0.08-0.06l-0.04-0.482c-0.021-0.02-0.021-0.06,0.06-0.08
	C13.074,3.962,13.074,4.002,13.074,4.042L13.074,4.042z M12.352,4.122l0.1,0.441c0,0.04,0,0.08-0.08,0.1
	c-0.06,0-0.08-0.02-0.08-0.06l-0.08-0.461c0-0.041-0.021-0.08,0.06-0.08C12.352,4.042,12.352,4.082,12.352,4.122L12.352,4.122z
	 M11.65,4.263l0.12,0.441c0.021,0.041,0.021,0.081-0.04,0.101c-0.08,0.02-0.08-0.02-0.101-0.06l-0.12-0.441
	c-0.02-0.04-0.02-0.06,0.061-0.08C11.629,4.202,11.65,4.223,11.65,4.263L11.65,4.263z M6.694,8.074l0.421,0.201
	c0.04,0.02,0.06,0.02,0.04,0.1c-0.04,0.06-0.06,0.041-0.1,0.041l-0.42-0.2C6.594,8.195,6.554,8.195,6.594,8.115
	C6.614,8.054,6.655,8.074,6.694,8.074L6.694,8.074z M7.076,7.473l0.381,0.241c0.04,0.02,0.08,0.04,0.04,0.1
	c-0.04,0.06-0.08,0.04-0.1,0.04L6.996,7.593c-0.04-0.02-0.061-0.04-0.02-0.1C7.016,7.432,7.036,7.452,7.076,7.473L7.076,7.473z
	 M7.537,6.911l0.361,0.301c0.021,0.02,0.06,0.04,0,0.1c-0.04,0.06-0.08,0.041-0.101,0.02l-0.36-0.301c-0.021-0.04-0.04-0.06,0-0.12
	S7.518,6.891,7.537,6.911L7.537,6.911z M8.019,6.41L8.34,6.731c0.04,0.04,0.06,0.06,0,0.12c-0.041,0.04-0.08,0.02-0.101,0
	L7.918,6.53c-0.04-0.041-0.06-0.061,0-0.12C7.958,6.369,7.999,6.389,8.019,6.41L8.019,6.41z M8.561,5.948l0.301,0.341
	c0.021,0.041,0.06,0.06,0,0.101c-0.061,0.06-0.08,0.04-0.1,0L8.44,6.048c-0.021-0.02-0.04-0.06,0-0.1
	C8.5,5.888,8.52,5.928,8.561,5.948L8.561,5.948z M9.122,5.507l0.301,0.361c0.02,0.04,0.04,0.06-0.02,0.121
	c-0.06,0.04-0.08,0-0.101-0.021L9.001,5.607c-0.02-0.04-0.04-0.06,0.02-0.1C9.082,5.446,9.102,5.487,9.122,5.507L9.122,5.507z
	 M9.724,5.105l0.22,0.421c0.02,0.02,0.04,0.061-0.02,0.101c-0.08,0.04-0.08,0-0.1-0.04L9.604,5.186
	c-0.02-0.04-0.041-0.06,0.02-0.101C9.684,5.045,9.704,5.085,9.724,5.105L9.724,5.105z M10.326,4.784l0.2,0.421
	c0.021,0.04,0.021,0.061-0.04,0.1c-0.08,0.02-0.08,0-0.101-0.04l-0.181-0.421c-0.02-0.041-0.04-0.081,0.021-0.101
	C10.306,4.704,10.326,4.744,10.326,4.784L10.326,4.784z M10.988,4.503l0.141,0.442c0.02,0.04,0.04,0.08-0.041,0.101
	c-0.06,0.02-0.08-0.021-0.1-0.061l-0.14-0.441c-0.021-0.02-0.021-0.061,0.04-0.081C10.968,4.444,10.968,4.464,10.988,4.503
	L10.988,4.503z M6.113,9.339l0.441,0.161c0.04,0.02,0.081,0.04,0.04,0.1c-0.02,0.08-0.06,0.06-0.101,0.04l-0.421-0.16
	c-0.04,0-0.081-0.02-0.04-0.101C6.052,9.318,6.092,9.318,6.113,9.339L6.113,9.339z M5.892,10.06l0.442,0.081
	c0.04,0,0.08,0.02,0.06,0.081c0,0.08-0.041,0.08-0.08,0.06L5.852,10.2c-0.02,0-0.06-0.02-0.06-0.08
	C5.812,10.04,5.852,10.04,5.892,10.06L5.892,10.06z M5.731,10.702l0.461,0.081c0.04,0,0.081,0.02,0.06,0.08
	c0,0.08-0.041,0.08-0.081,0.08l-0.461-0.08c-0.041,0-0.08-0.02-0.061-0.08C5.671,10.702,5.692,10.702,5.731,10.702L5.731,10.702z
	 M5.591,11.405l0.461,0.061c0.04,0,0.08,0.02,0.06,0.08c0,0.08-0.04,0.08-0.08,0.08l-0.461-0.061c-0.041-0.02-0.061-0.02-0.061-0.1
	C5.531,11.405,5.551,11.405,5.591,11.405L5.591,11.405z M5.591,12.087h0.461c0.04,0,0.08,0,0.08,0.08c0,0.081-0.04,0.081-0.08,0.081
	l-0.461-0.02c-0.041,0-0.08,0-0.08-0.061C5.511,12.087,5.551,12.087,5.591,12.087L5.591,12.087z M13.676,20.392v-0.461
	c0-0.041,0-0.08-0.081-0.08c-0.08,0-0.08,0.039-0.08,0.08v0.461c0,0.02,0,0.061,0.08,0.061
	C13.676,20.453,13.676,20.412,13.676,20.392L13.676,20.392z M13.034,20.373l0.041-0.461c0.02-0.041,0.02-0.08-0.061-0.08
	c-0.08-0.021-0.08,0.02-0.08,0.059l-0.041,0.463c0,0.039-0.02,0.08,0.061,0.08C13.034,20.433,13.034,20.412,13.034,20.373
	L13.034,20.373z M12.332,20.293l0.08-0.461c0-0.041,0-0.082-0.06-0.082c-0.081-0.02-0.081,0.021-0.101,0.061l-0.08,0.463
	c0,0.02,0,0.059,0.06,0.08C12.312,20.373,12.312,20.332,12.332,20.293L12.332,20.293z M11.609,20.133l0.141-0.441
	c0-0.041,0.02-0.061-0.06-0.08c-0.081-0.021-0.081,0-0.101,0.039l-0.121,0.441c0,0.041-0.02,0.08,0.06,0.102
	C11.59,20.213,11.609,20.172,11.609,20.133L11.609,20.133z M7.036,16.942l0.401-0.261c0.021-0.02,0.061-0.041,0.021-0.102
	c-0.041-0.059-0.08-0.039-0.101-0.02l-0.401,0.241c-0.041,0.021-0.06,0.04-0.021,0.101C6.976,16.982,6.996,16.962,7.036,16.942
	L7.036,16.942z M7.497,17.504l0.361-0.301c0.02-0.021,0.061-0.061,0-0.121c-0.04-0.039-0.06-0.02-0.1,0l-0.341,0.302
	c-0.04,0.021-0.06,0.04-0.02,0.101C7.457,17.545,7.477,17.523,7.497,17.504L7.497,17.504z M7.979,17.985l0.342-0.32
	c0.02-0.021,0.04-0.041,0-0.101c-0.061-0.061-0.081-0.041-0.121,0l-0.321,0.32c-0.04,0.021-0.06,0.061,0,0.101
	C7.918,18.045,7.958,18.025,7.979,17.985L7.979,17.985z M8.52,18.467l0.301-0.361c0.04-0.02,0.06-0.039,0-0.101
	c-0.06-0.04-0.08-0.02-0.101,0L8.4,18.345c-0.021,0.041-0.041,0.061,0,0.121C8.46,18.508,8.48,18.486,8.52,18.467L8.52,18.467z
	 M9.082,18.888l0.301-0.361c0.02-0.02,0.04-0.061-0.021-0.102c-0.06-0.039-0.08-0.02-0.1,0.021l-0.281,0.361
	c-0.04,0.02-0.061,0.059,0,0.1C9.042,18.947,9.062,18.927,9.082,18.888L9.082,18.888z M9.684,19.291l0.221-0.402
	c0.02-0.041,0.04-0.061-0.021-0.1c-0.06-0.041-0.08,0-0.1,0.02l-0.221,0.42c-0.02,0.021-0.04,0.063,0.021,0.102
	C9.664,19.349,9.664,19.33,9.684,19.291L9.684,19.291z M15.201,20.213l-0.08-0.441c-0.021-0.041-0.021-0.08-0.101-0.061
	c-0.06,0-0.06,0.039-0.06,0.08l0.1,0.461c0,0.041,0,0.061,0.08,0.061C15.221,20.293,15.201,20.252,15.201,20.213L15.201,20.213z
	 M10.948,19.912l0.16-0.441c0-0.041,0.021-0.082-0.061-0.102c-0.06-0.02-0.08,0-0.08,0.041l-0.161,0.441
	c0,0.039-0.021,0.08,0.041,0.1C10.927,19.97,10.948,19.931,10.948,19.912L10.948,19.912z M6.092,15.056l0.421-0.161
	c0.041,0,0.08-0.021,0.041-0.079c-0.02-0.08-0.061-0.061-0.081-0.061l-0.441,0.16c-0.041,0.021-0.081,0.04-0.041,0.1
	C6.013,15.096,6.052,15.076,6.092,15.056L6.092,15.056z M5.852,14.354l0.462-0.081c0.02-0.02,0.06-0.02,0.06-0.1
	c-0.02-0.08-0.06-0.06-0.1-0.06l-0.441,0.1c-0.041,0-0.081,0-0.061,0.08C5.771,14.374,5.812,14.354,5.852,14.354L5.852,14.354z
	 M5.692,13.692l0.461-0.08c0.04,0,0.08,0,0.06-0.081c0-0.08-0.041-0.06-0.08-0.06l-0.462,0.08c-0.04,0-0.06,0-0.06,0.08
	C5.631,13.712,5.671,13.692,5.692,13.692L5.692,13.692z M5.551,12.99l0.462-0.06c0.04,0,0.08,0,0.08-0.081
	c-0.02-0.061-0.06-0.061-0.101-0.061l-0.461,0.061c-0.02,0-0.061,0-0.061,0.081C5.491,13.01,5.531,13.01,5.551,12.99L5.551,12.99z
	 M6.374,15.698l0.421-0.181c0.041-0.021,0.081-0.04,0.041-0.1c-0.021-0.081-0.061-0.061-0.101-0.041l-0.421,0.182
	c-0.041,0.02-0.061,0.039-0.041,0.1C6.314,15.738,6.354,15.719,6.374,15.698L6.374,15.698z M14.479,20.373v-0.461
	c0-0.041,0-0.08-0.081-0.08c-0.08,0-0.08,0.039-0.08,0.08l0.02,0.461c0,0.039,0,0.08,0.06,0.08
	C14.479,20.433,14.479,20.412,14.479,20.373L14.479,20.373z M15.862,19.99l-0.14-0.439c0-0.041-0.02-0.061-0.08-0.041
	c-0.081,0.021-0.06,0.061-0.06,0.08l0.14,0.441c0.02,0.041,0.02,0.08,0.101,0.061S15.883,20.031,15.862,19.99L15.862,19.99z
	 M16.525,19.832l-0.161-0.443c-0.02-0.02-0.02-0.059-0.101-0.039c-0.06,0.039-0.06,0.061-0.04,0.1l0.16,0.441
	c0.021,0.021,0.04,0.061,0.1,0.041C16.565,19.89,16.545,19.871,16.525,19.832L16.525,19.832z M17.187,19.531l-0.221-0.402
	c-0.02-0.039-0.02-0.08-0.1-0.039c-0.061,0.039-0.041,0.078-0.021,0.1l0.201,0.422c0.02,0.02,0.04,0.061,0.101,0.02
	C17.227,19.611,17.207,19.57,17.187,19.531L17.187,19.531z M17.849,19.168l-0.26-0.379c-0.021-0.041-0.041-0.082-0.101-0.041
	c-0.061,0.041-0.041,0.08-0.021,0.119l0.241,0.383c0.02,0.041,0.04,0.061,0.121,0.02C17.89,19.228,17.869,19.209,17.849,19.168
	L17.849,19.168z M18.411,18.828l-0.261-0.381c-0.02-0.041-0.04-0.061-0.1-0.02c-0.061,0.039-0.04,0.08-0.021,0.1l0.26,0.381
	c0.021,0.039,0.061,0.061,0.121,0.02C18.471,18.888,18.451,18.847,18.411,18.828L18.411,18.828z M18.952,18.367l-0.281-0.362
	c-0.021-0.02-0.061-0.06-0.101,0c-0.06,0.04-0.04,0.061-0.02,0.101l0.301,0.361c0.021,0.02,0.04,0.061,0.101,0
	C19.012,18.427,18.992,18.406,18.952,18.367L18.952,18.367z M19.453,17.885l-0.28-0.361c-0.041-0.02-0.06-0.06-0.12,0
	c-0.061,0.041-0.021,0.08,0,0.101l0.28,0.361c0.021,0.02,0.061,0.06,0.12,0.02C19.494,17.945,19.474,17.926,19.453,17.885
	L19.453,17.885z"/>
<g>
	<path fill="#FFFFFF" d="M26.69,12.367h-1.881l-0.129,0.313c-0.19,0.455-0.284,0.751-0.284,0.891c0,0.147,0.05,0.261,0.151,0.337
		c0.101,0.077,0.229,0.114,0.388,0.114v0.168h-1.47v-0.168c0.219-0.034,0.382-0.111,0.488-0.23c0.107-0.121,0.236-0.374,0.387-0.761
		c0.015-0.035,0.073-0.177,0.177-0.424l1.438-3.433h0.141l1.655,3.929l0.227,0.518c0.051,0.117,0.119,0.209,0.205,0.276
		c0.085,0.067,0.214,0.108,0.386,0.125v0.168h-1.94v-0.168c0.238,0,0.399-0.018,0.483-0.053s0.125-0.104,0.125-0.21
		c0-0.054-0.056-0.212-0.167-0.479L26.69,12.367z M26.622,12.202l-0.871-2.108l-0.873,2.108H26.622z"/>
	<path fill="#FFFFFF" d="M29.662,9.175v3.991c0,0.317,0.005,0.518,0.013,0.601c0.009,0.082,0.044,0.146,0.104,0.188
		c0.061,0.044,0.169,0.066,0.324,0.066h0.089v0.167h-1.595v-0.167h0.102c0.146,0,0.25-0.021,0.313-0.061
		c0.062-0.04,0.099-0.097,0.11-0.17c0.013-0.072,0.019-0.281,0.019-0.627v-2.953c0-0.314-0.028-0.513-0.084-0.593
		C29,9.536,28.864,9.495,28.648,9.495V9.328c0.147,0,0.321-0.018,0.521-0.052c0.199-0.034,0.337-0.068,0.412-0.103L29.662,9.175
		L29.662,9.175z"/>
	<path fill="#FFFFFF" d="M31.514,11.082v2.084c0,0.317,0.005,0.518,0.015,0.601c0.01,0.082,0.045,0.146,0.105,0.188
		c0.062,0.044,0.169,0.066,0.325,0.066h0.076v0.167h-1.608v-0.167h0.124c0.173,0,0.285-0.024,0.338-0.074
		c0.052-0.05,0.082-0.11,0.091-0.179c0.009-0.069,0.013-0.271,0.013-0.603V12.26c0-0.351-0.017-0.564-0.049-0.643
		c-0.032-0.079-0.077-0.127-0.132-0.146c-0.055-0.02-0.149-0.029-0.286-0.029h-0.1v-0.168c0.434-0.044,0.77-0.108,1.008-0.193
		H31.514L31.514,11.082z M30.81,9.558c0-0.105,0.038-0.195,0.111-0.271c0.075-0.074,0.164-0.113,0.269-0.113
		s0.193,0.039,0.266,0.113c0.073,0.075,0.11,0.165,0.11,0.271c0,0.106-0.037,0.198-0.11,0.273c-0.072,0.075-0.161,0.112-0.266,0.112
		s-0.193-0.037-0.269-0.112C30.847,9.757,30.81,9.665,30.81,9.558z"/>
	<path fill="#FFFFFF" d="M35.47,13.643h0.133c-0.022,0.416-0.226,0.623-0.61,0.623c-0.166,0-0.296-0.043-0.392-0.132
		c-0.096-0.087-0.158-0.217-0.188-0.39c-0.243,0.174-0.467,0.303-0.667,0.39c-0.201,0.089-0.38,0.132-0.539,0.132
		c-0.202,0-0.376-0.058-0.521-0.175c-0.146-0.117-0.22-0.271-0.22-0.464c0-0.249,0.122-0.469,0.367-0.656
		c0.245-0.187,0.583-0.369,1.014-0.547l0.566-0.229v-0.146c0-0.206-0.013-0.355-0.04-0.447c-0.026-0.094-0.096-0.175-0.208-0.248
		c-0.112-0.074-0.26-0.11-0.443-0.11c-0.365,0-0.569,0.122-0.61,0.365c-0.039,0.249-0.141,0.372-0.306,0.372
		c-0.149,0-0.223-0.071-0.223-0.212c0-0.138,0.098-0.287,0.295-0.446c0.196-0.16,0.503-0.239,0.919-0.239
		c0.309,0,0.548,0.048,0.719,0.146c0.17,0.097,0.282,0.208,0.337,0.332c0.056,0.123,0.083,0.313,0.083,0.568v1.207
		c0,0.282,0.014,0.464,0.044,0.543c0.029,0.081,0.093,0.121,0.19,0.121C35.331,14,35.431,13.881,35.47,13.643z M34.414,12.367
		l-0.398,0.159c-0.629,0.255-0.943,0.577-0.943,0.963c0,0.153,0.039,0.276,0.12,0.37C33.272,13.953,33.377,14,33.506,14
		c0.114,0,0.248-0.038,0.398-0.113c0.151-0.076,0.321-0.188,0.508-0.34L34.414,12.367L34.414,12.367z"/>
	<path fill="#FFFFFF" d="M36.711,11.082h0.099c0.056,0.151,0.088,0.357,0.095,0.616c0.174-0.206,0.358-0.36,0.55-0.463
		c0.191-0.102,0.392-0.153,0.601-0.153c0.238,0,0.433,0.05,0.584,0.149c0.151,0.101,0.25,0.224,0.293,0.367
		c0.044,0.145,0.066,0.354,0.066,0.633v0.934c0,0.345,0.005,0.555,0.017,0.63s0.051,0.132,0.115,0.17s0.184,0.057,0.355,0.057v0.167
		h-1.524v-0.167h0.069c0.175,0,0.289-0.024,0.343-0.077c0.054-0.051,0.084-0.109,0.091-0.178c0.008-0.068,0.012-0.269,0.012-0.601
		v-0.964c0-0.236-0.012-0.404-0.035-0.505c-0.022-0.102-0.085-0.191-0.186-0.269c-0.102-0.077-0.229-0.116-0.385-0.116
		c-0.178,0-0.347,0.053-0.509,0.159c-0.161,0.105-0.314,0.263-0.458,0.477v1.218c0,0.345,0.008,0.556,0.02,0.63
		c0.014,0.075,0.054,0.132,0.117,0.17c0.064,0.038,0.185,0.057,0.359,0.057v0.168h-1.514v-0.168c0.168,0,0.285-0.018,0.351-0.051
		c0.065-0.034,0.106-0.087,0.122-0.156s0.023-0.286,0.023-0.651v-0.892c0-0.348-0.007-0.56-0.02-0.634
		c-0.014-0.074-0.053-0.129-0.117-0.167s-0.185-0.057-0.359-0.057v-0.169C36.156,11.218,36.43,11.163,36.711,11.082z"/>
	<path fill="#FFFFFF" d="M39.838,14.189v-0.112l1.98-2.707H40.73c-0.139,0-0.234,0.011-0.283,0.027
		c-0.051,0.019-0.109,0.078-0.178,0.176c-0.07,0.098-0.141,0.25-0.211,0.457h-0.133l0.047-0.828h2.506v0.133l-1.973,2.687h0.818
		c0.266,0,0.443-0.016,0.533-0.044c0.092-0.028,0.18-0.101,0.268-0.217s0.176-0.29,0.264-0.523h0.145l-0.088,0.951h-2.609v0.001
		H39.838z"/>
	<path fill="#FFFFFF" d="M46.131,13.643h0.133c-0.021,0.416-0.227,0.623-0.611,0.623c-0.164,0-0.295-0.043-0.391-0.132
		c-0.096-0.087-0.158-0.217-0.188-0.39c-0.244,0.174-0.467,0.303-0.668,0.39c-0.199,0.089-0.379,0.132-0.537,0.132
		c-0.203,0-0.377-0.058-0.523-0.175c-0.145-0.117-0.219-0.271-0.219-0.464c0-0.249,0.123-0.469,0.367-0.656
		c0.246-0.187,0.582-0.369,1.014-0.547l0.568-0.229v-0.146c0-0.206-0.014-0.355-0.041-0.447c-0.027-0.094-0.098-0.175-0.209-0.248
		c-0.111-0.074-0.26-0.11-0.443-0.11c-0.365,0-0.568,0.122-0.609,0.365c-0.039,0.249-0.143,0.372-0.307,0.372
		c-0.148,0-0.223-0.071-0.223-0.212c0-0.138,0.098-0.287,0.295-0.446c0.197-0.16,0.504-0.239,0.92-0.239
		c0.309,0,0.547,0.048,0.719,0.146c0.17,0.097,0.281,0.208,0.336,0.332c0.055,0.123,0.082,0.313,0.082,0.568v1.207
		c0,0.282,0.016,0.464,0.045,0.543c0.029,0.081,0.092,0.121,0.189,0.121C45.99,14,46.092,13.881,46.131,13.643z M45.074,12.367
		l-0.398,0.159c-0.629,0.255-0.943,0.577-0.943,0.963c0,0.153,0.039,0.276,0.121,0.37C43.934,13.953,44.037,14,44.166,14
		c0.115,0,0.248-0.038,0.4-0.113c0.15-0.076,0.32-0.188,0.508-0.34V12.367L45.074,12.367z"/>
	<path fill="#FFFFFF" d="M52.258,9.244l0.041,1.232h-0.168c-0.033-0.27-0.109-0.491-0.227-0.669
		c-0.119-0.175-0.242-0.287-0.371-0.329c-0.129-0.044-0.348-0.065-0.652-0.065h-0.967v2.097h0.463c0.299,0,0.498-0.051,0.596-0.151
		c0.1-0.102,0.148-0.304,0.148-0.607h0.182v1.746h-0.182c0-0.211-0.021-0.379-0.064-0.501c-0.041-0.123-0.105-0.207-0.189-0.252
		c-0.082-0.045-0.246-0.067-0.49-0.067h-0.463v1.228c0,0.388,0.01,0.643,0.029,0.763s0.068,0.209,0.146,0.267
		c0.08,0.06,0.232,0.088,0.459,0.088h0.168v0.168h-2.301v-0.168h0.152c0.211,0,0.357-0.026,0.439-0.08
		c0.082-0.053,0.135-0.137,0.156-0.25c0.023-0.112,0.035-0.376,0.035-0.79v-2.425c0-0.394-0.012-0.647-0.035-0.763
		c-0.021-0.114-0.07-0.193-0.145-0.236c-0.074-0.044-0.236-0.065-0.488-0.065h-0.086V9.243L52.258,9.244L52.258,9.244z"/>
	<path fill="#FFFFFF" d="M53.152,11.844c0.084-0.216,0.219-0.396,0.404-0.544c0.186-0.146,0.367-0.219,0.545-0.219
		c0.16,0,0.287,0.05,0.379,0.149c0.092,0.101,0.139,0.202,0.139,0.308c0,0.069-0.023,0.131-0.07,0.182
		c-0.049,0.051-0.107,0.076-0.174,0.076c-0.123,0-0.215-0.089-0.277-0.27c-0.045-0.122-0.109-0.182-0.197-0.182
		c-0.105,0-0.23,0.07-0.375,0.213c-0.146,0.142-0.24,0.289-0.281,0.443c-0.041,0.152-0.063,0.363-0.063,0.631v0.533
		c0,0.317,0.006,0.518,0.012,0.601c0.01,0.083,0.045,0.146,0.105,0.189c0.063,0.044,0.17,0.065,0.326,0.065h0.104v0.168h-1.586
		v-0.168h0.076c0.146,0,0.25-0.021,0.313-0.06c0.061-0.041,0.098-0.098,0.111-0.17c0.012-0.072,0.018-0.282,0.018-0.626v-0.844
		c0-0.32-0.004-0.521-0.012-0.604c-0.01-0.081-0.045-0.145-0.105-0.189s-0.168-0.067-0.324-0.067h-0.076v-0.164
		c0.229-0.026,0.525-0.099,0.893-0.215C53.105,11.274,53.145,11.528,53.152,11.844z"/>
	<path fill="#FFFFFF" d="M57.928,13.643h0.135c-0.023,0.416-0.227,0.623-0.611,0.623c-0.166,0-0.295-0.043-0.393-0.132
		c-0.096-0.087-0.158-0.217-0.186-0.39c-0.244,0.174-0.467,0.303-0.668,0.39c-0.201,0.089-0.381,0.132-0.539,0.132
		c-0.201,0-0.377-0.058-0.521-0.175c-0.146-0.117-0.219-0.271-0.219-0.464c0-0.249,0.121-0.469,0.367-0.656
		c0.244-0.187,0.582-0.369,1.014-0.547l0.566-0.229v-0.146c0-0.206-0.014-0.355-0.041-0.447c-0.025-0.094-0.096-0.175-0.207-0.248
		c-0.113-0.074-0.26-0.11-0.443-0.11c-0.367,0-0.57,0.122-0.611,0.365c-0.039,0.249-0.141,0.372-0.307,0.372
		c-0.146,0-0.223-0.071-0.223-0.212c0-0.138,0.1-0.287,0.297-0.446c0.195-0.16,0.502-0.239,0.918-0.239
		c0.311,0,0.549,0.048,0.719,0.146c0.17,0.097,0.283,0.208,0.338,0.332c0.055,0.123,0.082,0.313,0.082,0.568v1.207
		c0,0.282,0.016,0.464,0.045,0.543c0.029,0.081,0.092,0.121,0.189,0.121C57.789,14,57.889,13.881,57.928,13.643z M56.873,12.367
		l-0.398,0.159c-0.629,0.255-0.945,0.577-0.945,0.963c0,0.153,0.041,0.276,0.121,0.37C55.732,13.953,55.836,14,55.967,14
		c0.113,0,0.246-0.038,0.398-0.113c0.15-0.076,0.32-0.188,0.508-0.34V12.367L56.873,12.367z"/>
	<path fill="#FFFFFF" d="M59.17,11.082h0.1c0.055,0.151,0.088,0.357,0.094,0.616c0.176-0.206,0.357-0.36,0.551-0.463
		c0.191-0.102,0.391-0.153,0.6-0.153c0.238,0,0.434,0.05,0.586,0.149c0.15,0.101,0.248,0.224,0.293,0.367
		c0.043,0.145,0.064,0.354,0.064,0.633v0.934c0,0.345,0.006,0.555,0.018,0.63c0.014,0.075,0.051,0.132,0.115,0.17
		s0.184,0.057,0.355,0.057v0.167h-1.523v-0.167h0.068c0.176,0,0.289-0.024,0.344-0.077c0.053-0.051,0.082-0.109,0.09-0.178
		s0.012-0.269,0.012-0.601v-0.964c0-0.236-0.012-0.404-0.035-0.505c-0.023-0.102-0.084-0.191-0.186-0.269s-0.23-0.116-0.385-0.116
		c-0.178,0-0.348,0.053-0.508,0.159c-0.164,0.105-0.316,0.263-0.459,0.477v1.218c0,0.345,0.008,0.556,0.021,0.63
		c0.012,0.075,0.051,0.132,0.115,0.17s0.186,0.057,0.359,0.057v0.168h-1.514v-0.168c0.168,0,0.285-0.018,0.35-0.051
		c0.066-0.034,0.107-0.087,0.123-0.156s0.023-0.286,0.023-0.651v-0.892c0-0.348-0.006-0.56-0.02-0.634s-0.053-0.129-0.117-0.167
		s-0.184-0.057-0.359-0.057v-0.169C58.615,11.218,58.889,11.163,59.17,11.082z"/>
	<path fill="#FFFFFF" d="M64.967,13.46h0.156c-0.164,0.567-0.578,0.85-1.24,0.85c-0.426,0-0.783-0.145-1.074-0.434
		c-0.289-0.289-0.436-0.672-0.436-1.149c0-0.488,0.156-0.884,0.471-1.188c0.314-0.305,0.684-0.457,1.111-0.457
		c0.258,0,0.494,0.058,0.711,0.17c0.217,0.114,0.326,0.252,0.326,0.415c0,0.061-0.021,0.116-0.061,0.172
		c-0.041,0.053-0.098,0.08-0.174,0.08c-0.16,0-0.258-0.095-0.295-0.28c-0.029-0.142-0.074-0.239-0.135-0.296
		c-0.063-0.056-0.186-0.084-0.369-0.084c-0.324,0-0.568,0.113-0.734,0.34c-0.164,0.226-0.246,0.566-0.246,1.021
		c0,0.47,0.088,0.838,0.266,1.103c0.176,0.265,0.443,0.397,0.801,0.397C64.527,14.117,64.834,13.899,64.967,13.46z"/>
	<path fill="#FFFFFF" d="M68.281,12.217h-2.088c-0.008,0.144-0.014,0.25-0.014,0.32c0,0.524,0.082,0.918,0.246,1.182
		c0.166,0.263,0.412,0.395,0.738,0.395c0.443,0,0.758-0.198,0.943-0.595h0.174c-0.078,0.248-0.232,0.442-0.465,0.581
		c-0.23,0.141-0.482,0.21-0.756,0.21c-0.252,0-0.492-0.063-0.717-0.19c-0.225-0.128-0.41-0.31-0.553-0.543
		c-0.145-0.232-0.215-0.516-0.215-0.85c0-0.472,0.139-0.863,0.416-1.176c0.277-0.312,0.623-0.469,1.039-0.469
		c0.393,0,0.695,0.12,0.91,0.359C68.156,11.679,68.27,11.938,68.281,12.217z M67.643,12.067c0.008-0.056,0.012-0.106,0.012-0.149
		c0-0.214-0.064-0.38-0.189-0.498s-0.279-0.177-0.463-0.177c-0.443,0-0.707,0.274-0.793,0.825L67.643,12.067L67.643,12.067z"/>
	<path fill="#FFFFFF" d="M68.867,14.284v-0.98h0.143c0.166,0.566,0.461,0.851,0.887,0.851c0.186,0,0.322-0.057,0.414-0.169
		c0.09-0.111,0.135-0.235,0.135-0.368c0-0.156-0.047-0.283-0.145-0.383c-0.1-0.1-0.293-0.22-0.58-0.362
		c-0.301-0.147-0.518-0.294-0.648-0.437c-0.131-0.142-0.197-0.314-0.197-0.522c0-0.196,0.07-0.385,0.211-0.563
		c0.143-0.179,0.34-0.268,0.596-0.268c0.26,0,0.475,0.105,0.645,0.317c0.037-0.036,0.084-0.125,0.143-0.267h0.135v0.923h-0.135
		c-0.047-0.221-0.143-0.411-0.283-0.57c-0.139-0.16-0.305-0.238-0.492-0.238c-0.146,0-0.266,0.045-0.355,0.135
		s-0.135,0.194-0.135,0.313c0,0.131,0.051,0.245,0.15,0.34c0.098,0.098,0.283,0.207,0.557,0.332c0.414,0.187,0.668,0.369,0.76,0.546
		c0.092,0.181,0.139,0.354,0.139,0.519c0,0.261-0.086,0.472-0.258,0.635s-0.387,0.244-0.646,0.244c-0.275,0-0.52-0.112-0.734-0.339
		c-0.064,0.072-0.119,0.177-0.16,0.313L68.867,14.284L68.867,14.284z"/>
	<path fill="#FFFFFF" d="M74.348,13.643h0.133c-0.021,0.416-0.225,0.623-0.609,0.623c-0.166,0-0.297-0.043-0.393-0.132
		c-0.096-0.087-0.158-0.217-0.188-0.39c-0.242,0.174-0.465,0.303-0.666,0.39c-0.201,0.089-0.381,0.132-0.539,0.132
		c-0.201,0-0.375-0.058-0.521-0.175s-0.221-0.271-0.221-0.464c0-0.249,0.123-0.469,0.367-0.656c0.246-0.187,0.584-0.369,1.016-0.547
		l0.566-0.229v-0.146c0-0.206-0.014-0.355-0.041-0.447c-0.027-0.094-0.096-0.175-0.209-0.248c-0.111-0.074-0.26-0.11-0.441-0.11
		c-0.367,0-0.57,0.122-0.611,0.365c-0.039,0.249-0.141,0.372-0.307,0.372c-0.148,0-0.223-0.071-0.223-0.212
		c0-0.138,0.098-0.287,0.295-0.446c0.197-0.16,0.504-0.239,0.92-0.239c0.309,0,0.549,0.048,0.719,0.146
		c0.17,0.097,0.281,0.208,0.336,0.332c0.055,0.123,0.084,0.313,0.084,0.568v1.207c0,0.282,0.014,0.464,0.043,0.543
		c0.029,0.081,0.094,0.121,0.189,0.121C74.209,14,74.309,13.881,74.348,13.643z M73.293,12.367l-0.4,0.159
		c-0.627,0.255-0.943,0.577-0.943,0.963c0,0.153,0.039,0.276,0.121,0.37C72.15,13.953,72.256,14,72.385,14
		c0.115,0,0.248-0.038,0.398-0.113c0.15-0.076,0.32-0.188,0.508-0.34v-1.18H73.293z"/>
</g>
<text transform="matrix(1 0 0 1 34.6128 19.3181)" fill="#FFFFFF" font-family="'TimesNewRomanPSMT'" font-size="5.1365">de Maracaibo</text>
</svg>
