<?xml version="1.0" encoding="utf-8"?>
<!-- Generator: Adobe Illustrator 17.1.0, SVG Export Plug-In . SVG Version: 6.00 Build 0)  -->
<!DOCTYPE svg PUBLIC "-//W3C//DTD SVG 1.1//EN" "http://www.w3.org/Graphics/SVG/1.1/DTD/svg11.dtd">
<svg version="1.1" id="Layer_2" xmlns="http://www.w3.org/2000/svg" xmlns:xlink="http://www.w3.org/1999/xlink" x="0px" y="0px"
	 viewBox="0 0 77 27.4" enable-background="new 0 0 77 27.4" xml:space="preserve">
<rect y="0" width="77" height="27.4"/>
<g>
	<path fill="#DDE21E" d="M12,23.1c-0.2,0-0.3,0-0.5,0c-0.3,0-0.7,0-1-0.1c-0.3,0-0.6-0.1-0.9-0.2c-0.8-0.2-1.7-0.5-2.4-0.9
		c-0.8-0.4-1.5-1-2.2-1.6h0v2.3H0V6.4l7.9,0c1.9,0,3.5,0.7,4.9,2c1.3,1.3,2,3,2,4.9c0,0.9-0.2,1.8-0.5,2.7c-0.4,0.8-0.8,1.5-1.5,2.2
		c1.1,0,2.6-0.4,3.1-0.7l-3.4,5.7C12.4,23.1,12.2,23.1,12,23.1z M7.9,11.4H5v3.8h2.9c0.5,0,1-0.2,1.3-0.6c0.4-0.4,0.6-0.8,0.6-1.3
		c0-0.5-0.2-1-0.6-1.4C8.9,11.6,8.4,11.4,7.9,11.4z"/>
	<path fill="#DDE21E" d="M28.6,22.5l-0.8-1.4h-7.3l-0.8,1.4H14L24.2,4.8l10.2,17.7H28.6z M24.9,16.1l-0.8-1.3l-0.8,1.3H24.9z"/>
	<path fill="#DDE21E" d="M45.7,6.4l-5.7,10v6.1h-5v-6.1l-5.7-10H35l2.5,4.3L40,6.4H45.7z"/>
	<path fill="#DDE21E" d="M61.9,24.5l-11.2-8.8v6.9h-5V5.3l11.2,8.8V6.4h5V24.5z"/>
	<path fill="#DDE21E" d="M70.6,17.5h5.8v5H61.9l6.4-11.1h-5.8v-5H77L70.6,17.5z"/>
</g>
</svg>
